<svg width="404" height="378" viewBox="0 0 404 378" fill="none" xmlns="http://www.w3.org/2000/svg">
<path d="M86.42 177.219C95.9171 154.307 85.0421 128.034 62.1299 118.537C39.2178 109.039 12.9448 119.915 3.44766 142.827C-6.04948 165.739 4.82555 192.012 27.7377 201.509C50.6499 211.006 76.9228 200.131 86.42 177.219Z" fill="#FFD3BD"/>
<path d="M376.396 201.367C399.308 191.87 410.183 165.597 400.686 142.685C391.189 119.773 364.916 108.898 342.004 118.395C319.091 127.892 308.216 154.165 317.714 177.077C327.211 199.989 353.484 210.864 376.396 201.367Z" fill="#FFBE9D"/>
<path d="M313.969 377.472C323.273 377.472 330.573 369.308 329.326 360.088C320.841 297.345 267.068 248.979 202 248.979C136.932 248.979 83.1593 297.345 74.6737 360.088C73.427 369.307 80.7274 377.471 90.0313 377.471H313.969V377.472Z" fill="#60805B"/>
<path d="M202 298.476L155.983 329.184C146.947 335.213 134.685 330.13 132.566 319.477L121.879 265.756L202 298.476Z" fill="white"/>
<path d="M202 298.476L248.017 329.184C257.053 335.213 269.315 330.13 271.434 319.477L282.121 265.756L202 298.476Z" fill="white"/>
<path d="M353.537 159.974C353.537 82.7007 285.692 22.6017 202 22.6017C118.308 22.6017 50.4629 82.7007 50.4629 159.974C50.4629 237.246 118.308 298.476 202 298.476C285.692 298.476 353.537 237.246 353.537 159.974Z" fill="#FFD3BD"/>
<path d="M153.312 29.7073C93.5047 47.7744 50.4629 98.4267 50.4629 159.974C50.4629 237.246 118.308 298.476 202 298.476C223.56 298.476 244.063 294.415 262.632 287.06C76.7411 276.797 102.978 85.7946 153.312 29.7073Z" fill="#FFBE9D"/>
<path d="M114.985 210.978C132.717 210.978 147.092 199.531 147.092 185.41C147.092 171.289 132.717 159.842 114.985 159.842C97.2536 159.842 82.8792 171.289 82.8792 185.41C82.8792 199.531 97.2536 210.978 114.985 210.978Z" fill="#F9A6B1" fill-opacity="0.61"/>
<path d="M289.015 210.978C306.747 210.978 321.122 199.531 321.122 185.41C321.122 171.289 306.747 159.842 289.015 159.842C271.282 159.842 256.908 171.289 256.908 185.41C256.908 199.531 271.282 210.978 289.015 210.978Z" fill="#F9A6B1" fill-opacity="0.61"/>
<path d="M133.697 166.715C130.429 166.715 127.779 164.065 127.779 160.797V147.671C127.779 144.403 130.429 141.753 133.697 141.753C136.966 141.753 139.615 144.403 139.615 147.671V160.797C139.615 164.065 136.966 166.715 133.697 166.715Z" fill="#4E5660"/>
<path d="M270.303 166.715C267.035 166.715 264.385 164.065 264.385 160.797V147.671C264.385 144.403 267.035 141.753 270.303 141.753C273.571 141.753 276.221 144.403 276.221 147.671V160.797C276.221 164.065 273.571 166.715 270.303 166.715Z" fill="#4E5660"/>
<path d="M202 197.561C215.829 217.786 247.175 213.5 264.202 204.95C268.254 202.915 267.771 197.005 263.467 195.58C253.003 192.115 246.636 182.222 239.383 168.609C231.724 154.233 210.387 154.233 202 168.609C193.613 154.233 172.276 154.233 164.617 168.609C157.364 182.222 150.997 192.115 140.533 195.58C136.229 197.005 135.746 202.915 139.798 204.95C156.825 213.5 188.171 217.786 202 197.561Z" fill="#4E5660"/>
<path d="M321.534 44.1794C366.605 44.1794 383.281 110.526 371.087 160.55C367.931 173.5 351.726 177.919 342.355 168.443C304.577 130.244 239.815 44.1794 321.534 44.1794Z" fill="#4E5660"/>
<path d="M356.07 61.875C347.477 50.9875 335.963 44.1794 321.534 44.1794C272.913 44.1794 276.147 74.6459 294.698 107.372C321.552 96.2023 342.136 80.9442 356.07 61.875Z" fill="#383C43"/>
<path d="M324.685 19.1093C219.189 40.8417 184.709 1.43512 129.904 0.53559C104.309 0.11502 82.3363 19.3066 79.9147 44.2599C36.7719 46.7202 20.9528 111.483 32.9126 160.55C36.0689 173.5 52.2738 177.919 61.6455 168.443C79.6788 150.207 103.861 121.065 115.323 95.5837C172.628 117.213 301.365 110.102 342.751 45.2368C350.917 32.439 339.554 16.0462 324.685 19.1093Z" fill="#4E5660"/>
</svg>
