<svg width="313" height="313" viewBox="0 0 313 313" fill="none" xmlns="http://www.w3.org/2000/svg">
<path d="M24.2807 6.93126L14.4065 35.037C12.5249 40.3935 16.6929 45.9523 22.3611 45.6203C48.5993 44.084 84.3387 59.4962 90.7661 77.6618C92.347 61.439 81.1047 12.4858 36.8856 0.376613C31.6038 -1.06979 26.0957 1.76494 24.2807 6.93126Z" fill="#4A5058"/>
<path d="M288.719 6.93126L298.593 35.0364C300.475 40.3929 296.307 45.9516 290.638 45.6197C264.4 44.0834 228.661 59.4956 222.233 77.6612C220.652 61.439 231.895 12.4858 276.114 0.376613C281.396 -1.06979 286.904 1.76494 288.719 6.93126Z" fill="#4A5058"/>
<path d="M94.5925 312.999H78.9559C76.4415 312.999 74.4028 310.961 74.4028 308.446V296.478C74.4028 277.047 85.1169 259.418 102.364 250.469L111.662 268.39C101.133 273.853 94.5918 284.616 94.5918 296.477L94.5925 312.999Z" fill="#6ED0DD"/>
<path d="M74.4028 296.478V308.446C74.4028 310.961 76.4415 312.999 78.9559 312.999H94.5925V296.478H74.4028Z" fill="#FFD4B8"/>
<path d="M218.407 312.999H234.043C236.558 312.999 238.597 310.961 238.597 308.446V296.478C238.597 277.047 227.883 259.418 210.636 250.469L201.337 268.39C211.866 273.853 218.408 284.616 218.408 296.477V312.999H218.407Z" fill="#6ED0DD"/>
<path d="M238.597 296.478V308.446C238.597 310.961 236.558 312.999 234.043 312.999H218.407V296.478H238.597Z" fill="#FFD4B8"/>
<path d="M156.5 209.554C122.238 209.554 94.4635 237.328 94.4635 271.59V312.999H218.536V271.59C218.536 237.328 190.762 209.554 156.5 209.554Z" fill="#53F5FF" fill-opacity="0.85"/>
<path opacity="0.3" d="M111.663 229.799C111.316 229.799 110.972 229.812 110.629 229.825C100.587 240.848 94.4635 255.504 94.4635 271.59V276.653C99.1004 280.592 105.102 282.973 111.663 282.973C126.346 282.973 138.25 271.07 138.25 256.386C138.249 241.702 126.346 229.799 111.663 229.799Z" fill="white"/>
<path opacity="0.3" d="M201.337 269.891C186.653 269.891 174.75 281.794 174.75 296.478C174.75 302.724 176.909 308.462 180.514 313H218.536V276.212C213.899 272.272 207.898 269.891 201.337 269.891Z" fill="white"/>
<path opacity="0.1" d="M156.5 209.554C133.208 209.554 112.918 222.392 102.31 241.377C118.14 250.903 136.679 256.386 156.5 256.386C176.321 256.386 194.86 250.903 210.689 241.376C200.082 222.392 179.792 209.554 156.5 209.554Z" fill="black"/>
<path d="M51.2475 158.841C62.0921 158.841 70.8834 150.05 70.8834 139.205C70.8834 128.361 62.0921 119.569 51.2475 119.569C40.403 119.569 31.6117 128.361 31.6117 139.205C31.6117 150.05 40.403 158.841 51.2475 158.841Z" fill="#FFD4B8"/>
<path d="M261.752 158.841C272.596 158.841 281.388 150.05 281.388 139.205C281.388 128.361 272.596 119.569 261.752 119.569C250.907 119.569 242.116 128.361 242.116 139.205C242.116 150.05 250.907 158.841 261.752 158.841Z" fill="#FFD4B8"/>
<path d="M156.5 244.317C214.626 244.317 261.746 197.197 261.746 139.071C261.746 80.945 214.626 33.8247 156.5 33.8247C98.3739 33.8247 51.2537 80.945 51.2537 139.071C51.2537 197.197 98.3739 244.317 156.5 244.317Z" fill="#FFD4B8"/>
<path d="M156.5 33.8198C108.076 33.8198 67.2979 66.5234 55.0292 111.046C76.8444 120.383 128.192 117.255 156.5 75.4017C184.068 116.161 235.399 120.194 258.162 111.753C246.131 66.8694 205.178 33.8198 156.5 33.8198Z" fill="#4A5058"/>
<path opacity="0.1" d="M172.097 231.031C113.97 231.031 66.848 183.91 66.848 125.782C66.848 97.3721 78.1092 71.5949 96.4056 52.6591C69.1136 71.675 51.25 103.283 51.25 139.068C51.25 197.196 98.3717 244.317 156.499 244.317C186.216 244.317 213.052 231.997 232.19 212.192C215.152 224.064 194.44 231.031 172.097 231.031Z" fill="#513130"/>
<path d="M156.5 171.824C151.166 171.824 146.014 169.589 142.362 165.692C140.631 163.844 140.726 160.943 142.574 159.212C144.422 157.48 147.324 157.575 149.055 159.422C151.007 161.507 153.652 162.655 156.5 162.655C159.349 162.655 161.993 161.506 163.946 159.422C165.677 157.576 168.578 157.479 170.427 159.212C172.274 160.943 172.37 163.844 170.638 165.692C166.985 169.589 161.833 171.824 156.5 171.824Z" fill="#4A5058"/>
<path d="M114.022 143.53C111.489 143.53 109.437 141.477 109.437 138.945C109.437 136.396 107.363 134.323 104.814 134.323C102.266 134.323 100.192 136.396 100.192 138.945C100.192 141.477 98.14 143.53 95.6073 143.53C93.0745 143.53 91.0223 141.477 91.0223 138.945C91.0223 131.34 97.2095 125.153 104.814 125.153C112.419 125.153 118.607 131.34 118.607 138.945C118.607 141.477 116.554 143.53 114.022 143.53Z" fill="#4A5058"/>
<path d="M217.392 143.53C214.859 143.53 212.807 141.477 212.807 138.945C212.807 136.396 210.734 134.323 208.185 134.323C205.636 134.323 203.563 136.396 203.563 138.945C203.563 141.477 201.51 143.53 198.978 143.53C196.445 143.53 194.393 141.477 194.393 138.945C194.393 131.34 200.58 125.153 208.185 125.153C215.789 125.153 221.977 131.34 221.977 138.945C221.977 141.477 219.925 143.53 217.392 143.53Z" fill="#4A5058"/>
<path d="M101.149 59.0224L83.6864 76.485C78.7988 81.3719 70.8754 81.3719 65.9879 76.485C61.1009 71.598 61.1009 63.674 65.9879 58.7864L83.4504 41.3239C88.338 36.4363 96.2614 36.4363 101.149 41.3239C106.036 46.2108 106.036 54.1348 101.149 59.0224Z" fill="#F5F85F"/>
<path d="M211.851 59.0224L229.314 76.485C234.201 81.3719 242.125 81.3719 247.012 76.485C251.9 71.598 251.9 63.674 247.012 58.7864L229.55 41.3239C224.663 36.4363 216.739 36.4363 211.851 41.3239C206.964 46.2108 206.964 54.1348 211.851 59.0224Z" fill="#F5F85F"/>
</svg>
