<svg width="24" height="24" viewBox="0 0 24 24" fill="none" xmlns="http://www.w3.org/2000/svg">
<g clip-path="url(#clip0)">
<path d="M20.8483 13.2663C20.8483 12.9045 20.9689 12.5427 20.9689 12.0603C20.9689 11.5779 20.9689 11.2161 20.8483 10.8543L23.381 8.80402C23.6222 8.56281 23.6222 8.32161 23.5016 8.0804L21.0896 3.8593C20.9689 3.73869 20.7278 3.61809 20.3659 3.73869L17.3509 4.94472C16.7479 4.46231 16.0242 4.1005 15.3006 3.73869L14.8182 0.603015C14.9388 0.241206 14.577 0 14.3358 0H9.51168C9.27043 0 8.90867 0.241206 8.90867 0.482412L8.42626 3.73869C7.70264 3.9799 7.09963 4.46231 6.37601 4.94472L3.48154 3.73869C3.11974 3.61809 2.87853 3.73869 2.63728 3.9799L0.225222 8.201C0.104619 8.32161 0.225222 8.68342 0.466428 8.92462L2.99909 10.8543C2.99909 11.2161 2.87848 11.5779 2.87848 12.0603C2.87848 12.5427 2.87848 12.9045 2.99909 13.2663L0.466428 15.3166C0.225222 15.5578 0.225222 15.799 0.345825 16.0402L2.75788 20.2614C2.87848 20.382 3.11964 20.5026 3.4815 20.382L6.49657 19.1759C7.09958 19.6583 7.8232 20.0201 8.54681 20.382L9.02923 23.5176C9.02923 23.7588 9.27043 24 9.63224 24H14.4563C14.6976 24 15.0594 23.7588 15.0594 23.5176L15.5418 20.382C16.2654 20.0201 16.989 19.6583 17.592 19.1759L20.6071 20.382C20.8483 20.5026 21.2101 20.382 21.3308 20.1407L23.7428 15.9196C23.8634 15.6784 23.8634 15.3166 23.6222 15.196L20.8483 13.2663ZM11.9237 16.2814C9.63229 16.2814 7.70264 14.3518 7.70264 12.0603C7.70264 9.76884 9.63229 7.8392 11.9237 7.8392C14.2152 7.8392 16.1448 9.76884 16.1448 12.0603C16.1448 14.3518 14.2152 16.2814 11.9237 16.2814Z" fill="white"/>
</g>
<defs>
<clipPath id="clip0">
<rect width="24" height="24" fill="white"/>
</clipPath>
</defs>
</svg>
