<svg width="164" height="171" viewBox="0 0 164 171" fill="none" xmlns="http://www.w3.org/2000/svg">
<g clip-path="url(#clip0)">
<path d="M132.103 167.425H25.3211C11.3376 167.425 0 156.087 0 142.103V35.3211C0 21.3376 11.3376 10 25.3211 10H132.103C146.087 10 157.425 21.3376 157.425 35.3211V142.103C157.425 156.087 146.087 167.425 132.103 167.425Z" fill="#3ABCA7"/>
<path d="M133.205 52.3836H78.712C77.0409 52.3836 75.6846 51.0304 75.6846 49.3563C75.6846 47.6821 77.0409 46.3289 78.712 46.3289H133.205C134.876 46.3289 136.233 47.6821 136.233 49.3563C136.233 51.0304 134.876 52.3836 133.205 52.3836Z" fill="white"/>
<path d="M133.205 94.7672H78.712C77.0409 94.7672 75.6846 93.4139 75.6846 91.7398C75.6846 90.0656 77.0409 88.7124 78.712 88.7124H133.205C134.876 88.7124 136.233 90.0656 136.233 91.7398C136.233 93.4139 134.876 94.7672 133.205 94.7672Z" fill="white"/>
<path d="M133.205 137.151H78.712C77.0409 137.151 75.6846 135.797 75.6846 134.123C75.6846 132.449 77.0409 131.096 78.712 131.096H133.205C134.876 131.096 136.233 132.449 136.233 134.123C136.233 135.797 134.876 137.151 133.205 137.151Z" fill="white"/>
<path d="M36.5433 61.4658C35.9105 61.4658 35.2718 61.269 34.7268 60.8603L20.8886 50.4794C19.5505 49.4773 19.2811 47.5791 20.2831 46.2441C21.2852 44.909 23.1834 44.6365 24.5215 45.6386L36.0922 54.3151L55.0074 32.2514C56.0942 30.9799 58.0075 30.8346 59.276 31.9245C60.5445 33.0113 60.6928 34.9216 59.603 36.1901L38.8441 60.4092C38.2447 61.1055 37.397 61.4658 36.5433 61.4658Z" fill="white"/>
<path d="M36.5433 103.849C35.9105 103.849 35.2718 103.653 34.7268 103.244L20.8886 92.8629C19.5505 91.8609 19.2811 89.9627 20.2831 88.6276C21.2852 87.2925 23.1834 87.0201 24.5215 88.0221L36.0922 96.6986L55.0074 74.635C56.0942 73.3635 58.0075 73.2182 59.276 74.308C60.5445 75.3949 60.6928 77.3051 59.603 78.5736L38.8441 102.793C38.2447 103.489 37.397 103.849 36.5433 103.849Z" fill="white"/>
<path d="M36.5433 149.257C35.9105 149.257 35.2718 149.06 34.7268 148.652L20.8886 138.271C19.5505 137.269 19.2811 135.371 20.2831 134.036C21.2852 132.7 23.1834 132.428 24.5215 133.43L36.0922 142.107L55.0074 120.046C56.0942 118.771 58.0075 118.626 59.276 119.719C60.5445 120.806 60.6928 122.716 59.603 123.985L38.8441 148.201C38.2447 148.897 37.397 149.257 36.5433 149.257Z" fill="white"/>
<path d="M99.4071 147.713L99.3829 147.734L93.3644 169.804L107.433 155.736L99.4071 147.713Z" fill="#EDDCC7"/>
<path d="M157.684 105.484L153.909 101.709C151.563 99.3627 147.757 99.3627 145.411 101.709L134.567 112.553L142.593 120.579L157.684 105.484Z" fill="#D75A4A"/>
<path d="M142.592 120.577L134.567 112.552L99.4086 147.71L107.434 155.736L142.592 120.577Z" fill="#F29C21"/>
<path d="M116.508 164.86L116.532 164.836L107.432 155.736L93.3638 169.804L92.9611 171.282L116.508 164.86Z" fill="#D6C4B1"/>
<path d="M151.69 129.679L162.534 118.835C164.88 116.489 164.88 112.683 162.534 110.337L157.684 105.487L142.592 120.579L151.69 129.679Z" fill="#A34740"/>
<path d="M107.43 155.739L116.53 164.839L151.688 129.681L142.588 120.581L107.43 155.739Z" fill="#E18C25"/>
<path d="M90.8214 176.449C90.0464 176.449 89.2714 176.152 88.681 175.562C87.4973 174.378 87.4973 172.465 88.681 171.281L95.3625 164.6C96.5462 163.416 98.4595 163.416 99.6432 164.6C100.827 165.784 100.827 167.697 99.6432 168.881L92.9618 175.562C92.3714 176.156 91.5964 176.449 90.8214 176.449Z" fill="#5E5E5E"/>
</g>
<defs>
<clipPath id="clip0">
<rect width="164" height="171" fill="white"/>
</clipPath>
</defs>
</svg>
