<svg width="303" height="303" viewBox="0 0 303 303" fill="none" xmlns="http://www.w3.org/2000/svg">
<g clip-path="url(#clip0)">
<path d="M21.7675 84.2831C28.959 76.4371 36.4949 69.3769 44.7925 62.8222C45.7684 62.0517 47.1733 62.9743 46.8466 64.1739C42.1957 81.2679 34.0697 98.1613 21.5432 110.72C20.9804 101.928 20.9721 93.063 21.7675 84.2831Z" fill="#FF901D"/>
<path d="M21.5438 110.727C14.3114 101.999 8.09637 92.975 2.49679 83.2328C1.85647 82.1191 0.153276 82.5162 0.0881788 83.7998C-0.922018 103.756 6.70269 127.106 25.2792 136.524C23.4281 128.037 22.0941 119.401 21.5438 110.727Z" fill="#FF901D"/>
<path d="M25.278 136.517C29.8295 127.152 34.9243 118.439 40.8961 109.993C41.6045 108.991 43.1935 109.45 43.245 110.677C43.9723 127.915 41.0145 146.138 32.7548 161.27C29.6928 153.216 27.1102 144.942 25.278 136.517Z" fill="#FF901D"/>
<path d="M32.7565 161.276C23.3653 155.24 14.7866 148.641 6.55768 141.228C5.60844 140.373 4.11948 141.266 4.44083 142.502C9.39831 161.564 23.5754 181.124 43.7592 184.579C39.5634 177.087 35.8049 169.31 32.7565 161.276Z" fill="#FF901D"/>
<path d="M43.7557 184.574C45.4009 174.357 47.7539 164.611 51.0295 154.867C51.4189 153.708 53.0646 153.686 53.473 154.838C59.2016 171.011 61.522 189.257 58.0659 206.025C52.8119 199.225 47.9515 192.079 43.7557 184.574Z" fill="#FF901D"/>
<path d="M58.0695 206.03C47.3645 202.997 37.2506 199.204 27.2345 194.555C26.0775 194.018 24.9176 195.305 25.5845 196.393C35.883 213.187 55.1637 227.728 75.4712 225.222C69.2373 219.25 63.3465 212.869 58.0695 206.03Z" fill="#FF901D"/>
<path d="M75.4665 225.218C74.006 214.924 73.3852 204.884 73.6722 194.564C73.7059 193.341 75.2754 192.84 76.0021 193.824C86.2591 207.73 93.9111 224.623 95.7421 241.749C88.6098 236.736 81.7615 231.257 75.4665 225.218Z" fill="#FF901D"/>
<path d="M281.232 84.2831C274.041 76.4371 266.505 69.3769 258.207 62.8222C257.232 62.0517 255.827 62.9743 256.153 64.1739C260.804 81.2679 268.93 98.1613 281.457 110.72C282.02 101.928 282.028 93.063 281.232 84.2831Z" fill="#FF901D"/>
<path d="M281.456 110.727C288.689 101.999 294.904 92.975 300.503 83.2328C301.144 82.1191 302.847 82.5162 302.912 83.7998C303.922 103.756 296.297 127.106 277.721 136.524C279.572 128.037 280.906 119.401 281.456 110.727Z" fill="#FF901D"/>
<path d="M277.722 136.517C273.171 127.152 268.076 118.439 262.104 109.993C261.396 108.991 259.807 109.45 259.755 110.677C259.028 127.915 261.986 146.138 270.245 161.27C273.307 153.216 275.89 144.942 277.722 136.517Z" fill="#FF901D"/>
<path d="M270.243 161.276C279.635 155.24 288.213 148.641 296.442 141.228C297.392 140.373 298.88 141.266 298.559 142.502C293.602 161.564 279.425 181.124 259.241 184.579C263.437 177.087 267.195 169.31 270.243 161.276Z" fill="#FF901D"/>
<path d="M259.244 184.574C257.599 174.357 255.246 164.611 251.97 154.867C251.581 153.708 249.935 153.686 249.527 154.838C243.798 171.011 241.478 189.257 244.934 206.025C250.188 199.225 255.048 192.079 259.244 184.574Z" fill="#FF901D"/>
<path d="M244.931 206.03C255.636 202.997 265.749 199.204 275.766 194.555C276.923 194.018 278.082 195.305 277.415 196.393C267.117 213.187 247.836 227.728 227.529 225.222C233.763 219.25 239.653 212.869 244.931 206.03Z" fill="#FF901D"/>
<path d="M227.533 225.218C228.994 214.924 229.615 204.884 229.328 194.564C229.294 193.341 227.725 192.84 226.998 193.824C216.741 207.73 209.089 224.623 207.258 241.749C214.39 236.736 221.239 231.257 227.533 225.218Z" fill="#FF901D"/>
<path d="M120.788 251.141C112.592 247.1 105.1 242.703 98.52 238.074C98.5182 238.073 98.517 238.072 98.5152 238.071C98.5141 238.07 98.5135 238.069 98.5123 238.069C91.1687 232.908 84.5476 227.512 78.8309 222.027C78.8297 222.026 78.8285 222.024 78.8273 222.023C72.4105 215.877 66.7245 209.607 61.9262 203.388C61.925 203.386 61.9233 203.385 61.9221 203.383C61.9215 203.382 61.9215 203.382 61.9209 203.381C56.5083 196.375 51.8313 189.367 48.0202 182.548C48.0184 182.545 48.016 182.542 48.0143 182.538C43.6918 174.817 40.0978 167.207 37.3329 159.918C37.3317 159.915 37.3305 159.913 37.3294 159.911V159.91C34.1715 151.601 31.728 143.513 30.0656 135.872C30.0656 135.871 30.0651 135.87 30.0651 135.87C28.1565 127.12 26.9356 118.694 26.4367 110.829C26.4367 110.825 26.4356 110.821 26.4356 110.818C25.8556 101.759 25.9278 93.1246 26.6504 85.1549C26.6593 85.0584 26.6593 84.9625 26.6616 84.8667C27.6156 72.5425 29.897 60.1887 33.4537 48.1415C34.1686 45.7193 32.7844 43.1764 30.3621 42.4615C27.9411 41.746 25.397 43.1296 24.6821 45.553C20.9058 58.3447 18.4919 71.4702 17.5077 84.5649C17.5012 84.6542 17.503 84.7418 17.5012 84.83C16.778 93.1282 16.71 102.063 17.3083 111.403C17.3083 111.405 17.3083 111.406 17.3083 111.408C17.8362 119.726 19.1198 128.603 21.1242 137.794C21.126 137.801 21.1266 137.809 21.1277 137.816C22.886 145.9 25.4603 154.427 28.7797 163.159C28.7803 163.16 28.7803 163.161 28.7809 163.163C31.7061 170.873 35.4924 178.896 40.0351 187.008C40.0357 187.01 40.0362 187.011 40.0368 187.012C40.0386 187.015 40.0398 187.017 40.0416 187.02C40.0416 187.02 40.0416 187.02 40.0422 187.02C44.0729 194.228 48.9984 201.614 54.6832 208.972C54.6856 208.975 54.688 208.977 54.6897 208.98C59.762 215.553 65.7504 222.16 72.4892 228.616C72.491 228.618 72.4922 228.619 72.4939 228.621C78.5451 234.427 85.53 240.123 93.2553 245.552C93.2565 245.553 93.2571 245.553 93.2583 245.554C100.223 250.454 108.124 255.094 116.743 259.344C117.394 259.665 118.083 259.817 118.762 259.817C120.448 259.817 122.071 258.88 122.866 257.266C123.983 255.001 123.052 252.259 120.788 251.141Z" fill="#F7BC14"/>
<path d="M285.499 84.8299C285.497 84.7417 285.499 84.6547 285.492 84.5659C284.508 71.4689 282.094 58.3428 278.318 45.5535C277.603 43.1319 275.061 41.7506 272.637 42.4625C270.215 43.1774 268.831 45.721 269.546 48.1432C273.102 60.1874 275.384 72.5406 276.338 84.866C276.341 84.9624 276.341 85.0589 276.35 85.156C277.073 93.1227 277.145 101.758 276.565 110.82C276.565 110.822 276.565 110.823 276.565 110.825C276.565 110.826 276.564 110.828 276.564 110.829C276.066 118.691 274.845 127.116 272.936 135.87C272.936 135.871 272.935 135.872 272.935 135.872C271.274 143.514 268.83 151.601 265.671 159.91C265.671 159.911 265.671 159.912 265.67 159.913C265.669 159.915 265.668 159.917 265.667 159.919C262.903 167.207 259.308 174.819 254.982 182.546C254.981 182.547 254.98 182.548 254.98 182.549C251.169 189.365 246.492 196.374 241.079 203.382C241.077 203.383 241.076 203.385 241.075 203.387C241.074 203.388 241.074 203.388 241.074 203.388C236.277 209.605 230.59 215.874 224.173 222.023C224.171 222.024 224.17 222.026 224.169 222.027C218.455 227.51 211.833 232.907 204.487 238.069C204.485 238.07 204.484 238.072 204.481 238.073C204.481 238.073 204.48 238.074 204.479 238.074C197.899 242.704 190.408 247.101 182.212 251.141C179.946 252.258 179.016 255 180.133 257.265C180.929 258.88 182.551 259.817 184.238 259.817C184.916 259.817 185.606 259.664 186.256 259.344C194.873 255.095 202.774 250.455 209.738 245.555C209.741 245.554 209.743 245.553 209.745 245.551C217.472 240.121 224.457 234.425 230.506 228.621C230.508 228.619 230.509 228.617 230.511 228.615C237.253 222.155 243.243 215.547 248.314 208.975C248.314 208.975 248.314 208.974 248.315 208.973C248.316 208.973 248.316 208.972 248.317 208.972C254.005 201.609 258.933 194.22 262.963 187.011C262.966 187.007 262.968 187.002 262.97 186.997C267.512 178.885 271.296 170.865 274.218 163.162C274.218 163.162 274.219 163.162 274.219 163.161C274.219 163.16 274.219 163.16 274.219 163.159C277.537 154.432 280.109 145.91 281.868 137.829C281.868 137.828 281.869 137.826 281.869 137.825C283.877 128.618 285.163 119.731 285.691 111.407C285.692 111.401 285.691 111.395 285.691 111.389C286.289 102.051 286.221 93.1204 285.499 84.8299Z" fill="#F7BC14"/>
<path d="M125.515 175.179C112.332 175.179 99.4834 170.508 89.2589 161.808C76.6454 151.074 69.4106 135.421 69.4106 118.863V103.4C69.4106 101.613 70.1078 99.9325 71.373 98.6702C72.6342 97.4126 74.3089 96.7202 76.0891 96.7202C76.095 96.7202 76.1009 96.7202 76.1068 96.7202L116.59 96.809C119.116 96.8143 121.159 98.8661 121.153 101.392C121.147 103.914 119.101 105.955 116.581 105.955C116.577 105.955 116.574 105.955 116.57 105.955L78.5563 105.871L78.5557 118.862C78.5557 132.734 84.6169 145.848 95.1852 154.842C105.672 163.766 119.459 167.626 133.004 165.429C133.474 165.353 133.947 165.273 134.424 165.189C136.915 164.758 139.282 166.417 139.717 168.905C140.153 171.393 138.489 173.762 136.002 174.198C135.487 174.288 134.975 174.375 134.467 174.457C131.485 174.941 128.491 175.179 125.515 175.179Z" fill="#FFB125"/>
<path d="M177.485 175.179C174.508 175.179 171.516 174.941 168.532 174.457C168.025 174.375 167.513 174.288 166.997 174.198C164.509 173.763 162.847 171.392 163.282 168.905C163.718 166.417 166.09 164.757 168.575 165.19C169.052 165.274 169.526 165.354 169.995 165.429C183.543 167.625 197.327 163.767 207.814 154.842C218.382 145.849 224.444 132.735 224.444 118.863V105.872L186.43 105.955C186.426 105.955 186.423 105.955 186.419 105.955C183.898 105.955 181.852 103.915 181.847 101.392C181.841 98.8666 183.884 96.8148 186.409 96.8095L226.895 96.7207C226.901 96.7207 226.907 96.7207 226.913 96.7207C228.692 96.7207 230.366 97.4125 231.627 98.6707C232.893 99.9336 233.59 101.613 233.59 103.401V118.863C233.59 135.421 226.356 151.074 213.742 161.808C203.517 170.508 190.667 175.179 177.485 175.179Z" fill="#FFB125"/>
<path d="M121.434 241.449H181.566C156.658 209.862 159.257 164.34 159.257 164.34H151.5H143.743C143.743 164.341 146.343 209.863 121.434 241.449Z" fill="#FFD540"/>
<path d="M159.257 164.341H151.5H143.743C143.743 164.341 144.146 171.409 143.111 181.906C141.138 201.915 146.101 222.1 157.812 238.444C158.538 239.458 159.291 240.461 160.07 241.449H181.566C156.658 209.863 159.257 164.341 159.257 164.341Z" fill="#F8C22A"/>
<path d="M106.141 83.6167V123.51C106.141 147.112 117.358 169.309 136.36 183.309C145.364 189.942 157.636 189.942 166.64 183.309C185.642 169.31 196.859 147.112 196.859 123.51V83.6167H106.141Z" fill="#FFD540"/>
<path d="M175.262 83.6167V123.51C175.262 147.112 164.044 169.309 145.042 183.309C143.664 184.325 142.209 185.183 140.701 185.887C149.044 189.785 159.014 188.927 166.639 183.309C185.641 169.31 196.859 147.112 196.859 123.51V83.6167H175.262Z" fill="#F8C22A"/>
<path d="M200.109 89.8483H102.891C101.426 89.8483 100.238 88.6606 100.238 87.1953V76.2009C100.238 74.7356 101.426 73.5479 102.891 73.5479H200.109C201.574 73.5479 202.762 74.7356 202.762 76.2009V87.1953C202.761 88.6606 201.574 89.8483 200.109 89.8483Z" fill="#FFB125"/>
<path d="M200.109 73.5486H181.164V89.8484H200.109C201.574 89.8484 202.761 88.6607 202.761 87.1954V76.201C202.761 74.7363 201.574 73.5486 200.109 73.5486Z" fill="#FF901D"/>
<path d="M203.083 260.727H100.324C98.8342 260.727 97.8004 259.244 98.3164 257.846L105.948 237.169C106.258 236.328 107.059 235.77 107.955 235.77H195.452C196.348 235.77 197.149 236.328 197.46 237.169L205.091 257.846C205.607 259.244 204.573 260.727 203.083 260.727Z" fill="#FFB125"/>
<path d="M205.091 257.846L197.46 237.169C197.149 236.328 196.349 235.77 195.452 235.77H174.582L183.793 260.727H203.083C204.573 260.727 205.607 259.244 205.091 257.846Z" fill="#FF901D"/>
</g>
<defs>
<clipPath id="clip0">
<rect width="303" height="303" fill="white"/>
</clipPath>
</defs>
</svg>
