<svg width="210" height="210" viewBox="0 0 210 210" fill="none" xmlns="http://www.w3.org/2000/svg">
<path d="M62.1072 90.7888L16.2466 177.192L57.8921 173.344L78.0484 209.993L123.909 123.59L62.1072 90.7888Z" fill="#E95454"/>
<path d="M67.3594 184.834C68.6463 182.07 67.3004 178.768 64.6085 177.336L61.9691 175.931C59.3298 174.428 58.3252 171.086 59.7631 168.381C61.2206 165.63 64.6479 164.579 67.3988 166.037L74.8573 169.996C77.1619 171.217 80.0507 170.331 81.2391 168.013L81.4229 167.659C82.7886 165.472 81.981 162.583 79.7093 161.382L57.3995 149.544C54.6813 148.1 53.3485 144.81 54.6157 142.04C56.0141 139.092 59.5464 137.93 62.3893 139.44L83.084 150.424C85.3885 151.645 88.2774 150.759 89.4986 148.454L89.6168 148.152L89.6496 148.087C90.9693 145.67 90.0435 142.637 87.6077 141.344L75.9997 135.185C73.2816 133.741 71.9488 130.451 73.2356 127.648C74.621 124.733 78.1664 123.538 81.0093 125.048L93.8319 131.857C96.2283 133.13 99.0909 132.067 100.332 129.65C100.351 129.618 100.351 129.618 100.365 129.585C100.384 129.552 100.384 129.552 100.397 129.519C101.704 127.136 100.982 124.168 98.5788 122.901L84.7451 115.561C82.0598 114.136 80.727 110.847 81.9941 108.076C83.3926 105.128 86.9249 103.966 89.7678 105.476L123.896 123.59L78.0351 209.993L65.3963 187.02C66.2105 186.469 66.9196 185.786 67.3594 184.834Z" fill="#ED6362"/>
<path d="M147.893 90.7888L193.753 177.192L152.108 173.344L131.952 209.993L86.091 123.59L147.893 90.7888Z" fill="#ED6362"/>
<path d="M142.64 184.834C141.354 182.07 142.7 178.768 145.391 177.336L148.031 175.931C150.67 174.428 151.675 171.086 150.237 168.381C148.779 165.63 145.352 164.579 142.601 166.037L135.143 169.996C132.838 171.217 129.949 170.331 128.761 168.013L128.577 167.659C127.211 165.472 128.019 162.583 130.291 161.382L152.607 149.538C155.325 148.093 156.658 144.804 155.391 142.033C153.992 139.085 150.46 137.923 147.617 139.433L126.922 150.417C124.618 151.639 121.729 150.752 120.508 148.448L120.39 148.146L120.357 148.08C119.037 145.664 119.963 142.631 122.399 141.337L134.007 135.179C136.725 133.734 138.058 130.445 136.771 127.641C135.386 124.726 131.84 123.531 128.997 125.041L116.162 131.863C113.765 133.137 110.902 132.073 109.662 129.657C109.642 129.624 109.642 129.624 109.629 129.591C109.609 129.559 109.609 129.559 109.596 129.526C108.289 127.142 109.012 124.175 111.415 122.908L125.248 115.567C127.934 114.143 129.266 110.853 127.999 108.083C126.601 105.135 123.069 103.973 120.226 105.483L86.0977 123.597L131.958 210L144.597 187.027C143.789 186.469 143.08 185.786 142.64 184.834Z" fill="#E95454"/>
<path d="M105 153.254C147.32 153.254 181.627 118.947 181.627 76.6269C181.627 34.307 147.32 0 105 0C62.6801 0 28.3731 34.307 28.3731 76.6269C28.3731 118.947 62.6801 153.254 105 153.254Z" fill="#FFCC5B"/>
<path d="M115.393 67.8356H66.8343C63.0591 67.8356 59.9601 64.7366 59.9601 60.9614L60.0127 60.4887V60.3836C59.9601 56.3983 63.2101 53.1418 67.202 53.1418H100.857C105.315 53.1418 109.255 49.8393 109.517 45.3747C109.727 40.7066 106.005 36.7673 101.33 36.7673H65.6788C61.746 36.7673 58.8046 33.4648 58.8571 29.5254C58.8571 29.4729 58.8571 29.4729 58.8571 29.4204C58.8571 29.3679 58.8571 29.3679 58.8571 29.3153C58.8046 25.3825 61.7394 22.0735 65.6788 22.0735H102.984C107.39 22.0735 111.329 18.771 111.592 14.3589C111.802 9.63829 108.079 5.75146 103.405 5.75146H76.0852C48.2275 17.2347 28.5964 44.6262 28.5964 76.6269C28.5964 108.628 48.2275 136.013 76.0918 147.483H110.778C115.183 147.483 119.123 144.18 119.385 139.768C119.595 135.047 115.873 131.167 111.198 131.167L71.7388 131.161C67.0838 131.161 63.3349 127.267 63.5843 122.553C63.8141 118.141 67.7797 114.825 72.1984 114.825H87.4962C91.8951 114.701 95.4471 111.096 95.4471 106.664C95.4471 102.154 91.7769 98.4771 87.2598 98.4771H64.0702C60.295 98.4771 57.196 95.3847 57.2486 91.603V91.0252C56.9859 87.3025 59.9798 84.151 63.7025 84.151H114.921C119.379 84.151 123.318 80.8485 123.581 76.4365C123.791 71.7224 120.061 67.8356 115.393 67.8356Z" fill="#FDBC4B"/>
<path d="M105 131.318C74.8377 131.318 50.3022 106.776 50.3022 76.6202C50.3022 46.4645 74.8377 21.929 105 21.929C135.162 21.929 159.698 46.4711 159.698 76.6268C159.698 106.782 135.162 131.318 105 131.318Z" fill="#FFDB70"/>
<path opacity="0.2" d="M159.698 76.6269C159.698 47.5283 136.837 23.7281 108.138 22.0867H103.044C99.682 22.0867 96.6815 24.6079 96.478 27.9694C96.3204 31.5674 99.1567 34.535 102.722 34.535L132.818 34.5416C136.37 34.5416 139.226 37.5092 139.036 41.1071C138.859 44.4753 135.839 47.003 132.464 47.003H120.797C117.442 47.1015 114.73 49.8459 114.73 53.2272C114.73 56.6676 117.534 59.4711 120.974 59.4711H138.662C141.544 59.4711 143.901 61.8347 143.862 64.7104V65.1437C144.059 67.9866 141.78 70.3831 138.938 70.3831H99.8789C96.478 70.3831 93.4775 72.9042 93.274 76.2658C93.1164 79.8638 95.9527 82.8314 99.5178 82.8314H136.548C139.43 82.8314 141.787 85.195 141.787 88.0707L141.748 88.4318V88.5106C141.787 91.5505 139.305 94.0323 136.265 94.0323H110.594C107.193 94.0323 104.193 96.5535 103.989 99.9544C103.831 103.513 106.668 106.52 110.233 106.52H137.421C140.421 106.52 142.66 109.041 142.621 112.042C142.621 112.081 142.621 112.081 142.621 112.12C142.621 112.16 142.621 112.16 142.621 112.199C142.66 115.2 140.421 117.721 137.421 117.721H108.972C105.611 117.721 102.61 120.242 102.407 123.604C102.249 127.208 105.085 130.169 108.651 130.169H116.155C140.993 124.996 159.698 102.955 159.698 76.6269Z" fill="white"/>
<path d="M143.185 64.5134H116.582L108.355 39.2097C107.298 35.9597 102.695 35.9597 101.638 39.2097L93.4183 64.5134H66.8146C63.3939 64.5134 61.9692 68.8927 64.7399 70.9017L86.2618 86.5409L78.0417 111.845C76.9847 115.095 80.7074 117.8 83.478 115.791L105 100.151L126.522 115.791C129.293 117.8 133.015 115.095 131.958 111.845L123.738 86.5409L145.26 70.9017C148.024 68.8927 146.606 64.5134 143.185 64.5134Z" fill="#EC9922"/>
</svg>
