<svg width="512" height="512" viewBox="0 0 512 512" fill="none" xmlns="http://www.w3.org/2000/svg">
<g clip-path="url(#clip0)">
<path d="M127.664 267.366C86.546 221.776 47.948 173.654 16.107 121.643C4.59401 102.836 -3.20699 83.85 1.29301 61.4221C5.30301 41.4321 18.092 23.905 35.918 14.006C54.543 3.66305 77.287 2.45705 96.928 10.688C121.431 20.957 133.845 44.931 144.812 67.611C168.388 116.361 187.228 167.52 203.699 219.209L127.664 267.366Z" fill="#FEFCFC"/>
<path d="M144.217 245.316C106.63 202.099 76.594 161.905 52.765 122.981C42.617 106.404 39.539 95.5779 41.787 84.3679C44.061 73.0349 51.442 62.9229 61.532 57.3199C67.362 54.0829 74.055 52.3719 80.889 52.3719C86.27 52.3719 91.464 53.4049 96.33 55.4449C110.261 61.2839 118.912 77.3439 128.772 97.7319C146.648 134.696 162.766 175.048 178.899 223.35L144.217 245.316Z" fill="#FABED5"/>
<path d="M384.336 267.366C425.454 221.776 464.052 173.654 495.893 121.643C507.406 102.837 515.206 83.8509 510.706 61.4229C506.696 41.4329 493.907 23.9059 476.081 14.0069C457.456 3.66495 434.712 2.45795 415.072 10.6889C390.569 20.9579 378.155 44.9319 367.188 67.6119C343.612 116.362 324.772 167.521 308.301 219.21L384.336 267.366Z" fill="#FEFCFC"/>
<path d="M367.783 245.316C405.37 202.099 435.406 161.905 459.235 122.981C469.383 106.404 472.462 95.578 470.213 84.368C467.939 73.034 460.558 62.923 450.466 57.319C444.636 54.082 437.943 52.371 431.109 52.371C425.728 52.371 420.534 53.404 415.668 55.444C401.737 61.283 393.086 77.343 383.226 97.731C365.35 134.695 349.232 175.047 333.099 223.349L367.783 245.316Z" fill="#FABED5"/>
<path d="M410.732 199.849C387.533 179.571 360.144 164.388 330.335 154.929C322.466 176.173 315.173 197.643 308.301 219.209L384.337 267.366C399.257 250.823 413.838 233.942 427.892 216.667C422.57 210.821 416.856 205.2 410.732 199.849Z" fill="#FEFCFC"/>
<path d="M84.108 216.666C98.163 233.941 112.743 250.823 127.663 267.365L203.699 219.208C196.827 197.642 189.534 176.172 181.665 154.928C151.856 164.386 124.466 179.569 101.268 199.848C95.145 205.2 89.43 210.821 84.108 216.666Z" fill="#FEFCFC"/>
<path d="M354.444 164.061C347.233 182.554 340.168 202.188 333.101 223.349L367.784 245.316C382.11 228.843 395.332 212.814 407.538 197.123C391.545 183.681 373.666 172.591 354.444 164.061Z" fill="#FABED5"/>
<path d="M144.217 245.316L178.9 223.349C171.832 202.188 164.767 182.554 157.557 164.061C138.335 172.591 120.456 183.681 104.464 197.123C116.669 212.813 129.89 228.843 144.217 245.316Z" fill="#FABED5"/>
<path d="M256 506.715C360.966 506.715 446.058 432.337 446.058 340.588C446.058 248.839 360.966 174.461 256 174.461C151.034 174.461 65.942 248.839 65.942 340.588C65.942 432.337 151.034 506.715 256 506.715Z" fill="#FEFCFC"/>
<path d="M107.148 340.59C107.148 254.924 181.329 184.412 276.604 175.433C269.835 174.795 262.963 174.458 256 174.458C151.033 174.458 65.941 248.837 65.941 340.589C65.941 432.34 151.034 506.72 256 506.72C262.963 506.72 269.834 506.383 276.604 505.745C181.329 496.767 107.148 426.256 107.148 340.59Z" fill="#EDE8E8"/>
<path d="M150.488 310C144.143 310 139 315.142 139 321.488V342.647C139 348.991 144.143 354.134 150.488 354.134C156.833 354.134 161.976 348.991 161.976 342.647V321.488C161.976 315.145 156.833 310 150.488 310Z" fill="#3B484A"/>
<path d="M361.558 310C355.214 310 350.07 315.142 350.07 321.488V342.647C350.07 348.991 355.214 354.134 361.558 354.134C367.903 354.134 373.046 348.991 373.046 342.647V321.488C373.048 315.145 367.903 310 361.558 310Z" fill="#3B484A"/>
<path d="M303.36 342.775C298.584 338.599 291.326 339.085 287.15 343.863C284.467 346.93 280.407 348.691 276.008 348.691C271.61 348.691 267.549 346.93 264.868 343.863C264.831 343.82 264.788 343.783 264.751 343.743C261.512 340.169 256.096 339.068 251.673 340.929C250.114 341.585 248.683 342.59 247.568 343.866C244.886 346.933 240.825 348.694 236.428 348.694C232.03 348.694 227.969 346.933 225.287 343.866C221.112 339.088 213.854 338.599 209.076 342.778C204.299 346.953 203.811 354.21 207.988 358.988C215.034 367.048 225.401 371.671 236.428 371.671C243.54 371.671 250.371 369.738 256.219 366.211C262.067 369.74 268.898 371.671 276.01 371.671C287.038 371.671 297.405 367.047 304.45 358.988C308.625 354.206 308.136 346.95 303.36 342.775Z" fill="#3B484A"/>
<path d="M156.042 382.413H131.206C125.57 382.413 121 377.843 121 372.206C121 366.57 125.57 362 131.206 362H156.044C161.681 362 166.25 366.57 166.25 372.206C166.25 377.843 161.679 382.413 156.042 382.413Z" fill="#FABED5"/>
<path d="M385.042 382.413H360.206C354.57 382.413 350 377.843 350 372.206C350 366.57 354.57 362 360.206 362H385.044C390.681 362 395.25 366.57 395.25 372.206C395.25 377.843 390.679 382.413 385.042 382.413Z" fill="#FABED5"/>
</g>
<defs>
<clipPath id="clip0">
<rect width="511.999" height="511.999" fill="white"/>
</clipPath>
</defs>
</svg>
