<svg width="512" height="512" viewBox="0 0 512 512" fill="none" xmlns="http://www.w3.org/2000/svg">
<path d="M280.583 9.46735L313.968 39.6599L357.977 30.2049C376.377 26.2521 394.78 36.8774 400.556 54.7881L414.372 97.6282L457.212 111.444C475.124 117.22 485.749 135.623 481.795 154.023L472.34 198.032L502.533 231.417C515.156 245.375 515.156 266.625 502.533 280.583L472.34 313.968L481.795 357.977C485.748 376.377 475.123 394.78 457.212 400.556L414.372 414.372L400.556 457.212C394.78 475.124 376.377 485.749 357.977 481.795L313.968 472.34L280.583 502.533C266.625 515.156 245.375 515.156 231.417 502.533L198.032 472.34L154.023 481.795C135.623 485.748 117.22 475.123 111.444 457.212L97.6282 414.372L54.7881 400.556C36.8764 394.78 26.2511 376.377 30.2049 357.977L39.6599 313.968L9.46739 280.583C-3.15645 266.625 -3.15645 245.375 9.46739 231.417L39.6599 198.032L30.2049 154.023C26.2521 135.623 36.8774 117.22 54.7881 111.444L97.6282 97.6282L111.444 54.7881C117.22 36.8763 135.623 26.2511 154.023 30.2049L198.032 39.6599L231.417 9.46735C245.375 -3.15546 266.625 -3.15546 280.583 9.46735V9.46735Z" fill="#FADA15"/>
<path d="M256 449.659C149.216 449.659 62.3413 362.783 62.3413 256C62.3413 149.217 149.216 62.3414 256 62.3414C362.783 62.3414 449.658 149.217 449.658 256C449.658 362.783 362.783 449.659 256 449.659Z" fill="#FFF971"/>
<path d="M167.42 256C167.42 167.419 227.203 92.5421 308.539 69.5866C291.825 64.8694 274.202 62.3403 256 62.3403C149.216 62.3403 62.3413 149.215 62.3413 255.999C62.3413 362.782 149.216 449.658 256 449.658C274.202 449.658 291.825 447.128 308.539 442.411C227.203 419.458 167.42 344.581 167.42 256V256Z" fill="#FFEE4A"/>
<path d="M155.094 304.02C171.714 304.07 185.219 293.381 185.259 280.146C185.299 266.91 171.858 256.14 155.237 256.09C138.617 256.04 125.112 266.73 125.072 279.965C125.032 293.201 138.473 303.971 155.094 304.02Z" fill="#FCA0AD"/>
<path d="M356.237 256.09C339.617 256.04 326.112 266.73 326.072 279.965C326.032 293.201 339.473 303.971 356.094 304.021C372.714 304.07 386.219 293.381 386.259 280.146C386.299 266.91 372.858 256.14 356.237 256.09Z" fill="#FCA0AD"/>
<path d="M169.305 218C161.405 218 155 224.405 155 232.305V251.379C155 259.279 161.405 265.684 169.305 265.684C177.206 265.684 183.611 259.279 183.611 251.379V232.305C183.611 224.405 177.206 218 169.305 218Z" fill="#313D40"/>
<path d="M341.305 218C333.405 218 327 224.405 327 232.305V251.379C327 259.279 333.405 265.684 341.305 265.684C349.206 265.684 355.611 259.279 355.611 251.379V232.305C355.611 224.405 349.206 218 341.305 218Z" fill="#313D40"/>
<path d="M291.036 272.806C283.908 269.394 275.367 272.413 271.961 279.541C268.783 286.186 261.869 290.48 254.348 290.48C246.827 290.48 239.913 286.186 236.735 279.541C233.327 272.413 224.784 269.4 217.66 272.806C210.532 276.215 207.516 284.756 210.925 291.882C218.829 308.411 235.873 319.09 254.348 319.09C272.823 319.09 289.869 308.411 297.771 291.882C301.18 284.756 298.164 276.215 291.036 272.806Z" fill="#313D40"/>
</svg>
